<?xml version="1.0" encoding="UTF-8"?>
<svg xmlns="http://www.w3.org/2000/svg" xmlns:xlink="http://www.w3.org/1999/xlink" width="64px" height="64px" viewBox="0 0 64 64" version="1.1">
<g id="surface1">
<path style=" stroke:none;fill-rule:nonzero;fill:rgb(100%,100%,100%);fill-opacity:1;" d="M 53.65625 47.726562 C 52.476562 44.933594 50.765625 42.394531 48.621094 40.257812 C 46.480469 38.109375 43.941406 36.398438 41.152344 35.21875 C 41.125 35.207031 41.101562 35.199219 41.074219 35.1875 C 44.96875 32.375 47.5 27.792969 47.5 22.625 C 47.5 14.0625 40.5625 7.125 32 7.125 C 23.4375 7.125 16.5 14.0625 16.5 22.625 C 16.5 27.792969 19.03125 32.375 22.925781 35.195312 C 22.902344 35.207031 22.875 35.210938 22.851562 35.226562 C 20.050781 36.40625 17.539062 38.101562 15.382812 40.261719 C 13.238281 42.402344 11.527344 44.941406 10.34375 47.730469 C 9.183594 50.464844 8.558594 53.394531 8.5 56.363281 C 8.5 56.429688 8.511719 56.496094 8.535156 56.558594 C 8.558594 56.621094 8.597656 56.675781 8.644531 56.722656 C 8.691406 56.773438 8.746094 56.808594 8.808594 56.835938 C 8.867188 56.863281 8.933594 56.875 9 56.875 L 12.75 56.875 C 13.027344 56.875 13.246094 56.65625 13.25 56.386719 C 13.375 51.5625 15.3125 47.042969 18.738281 43.617188 C 22.28125 40.074219 26.988281 38.125 32 38.125 C 37.011719 38.125 41.71875 40.074219 45.261719 43.617188 C 48.6875 47.042969 50.625 51.5625 50.75 56.386719 C 50.757812 56.664062 50.976562 56.875 51.25 56.875 L 55 56.875 C 55.066406 56.875 55.132812 56.863281 55.195312 56.835938 C 55.257812 56.808594 55.3125 56.773438 55.359375 56.722656 C 55.40625 56.675781 55.441406 56.621094 55.464844 56.558594 C 55.492188 56.496094 55.503906 56.429688 55.5 56.363281 C 55.4375 53.375 54.820312 50.46875 53.65625 47.726562 Z M 32 33.375 C 29.132812 33.375 26.433594 32.257812 24.402344 30.226562 C 22.371094 28.195312 21.25 25.492188 21.25 22.625 C 21.25 19.757812 22.371094 17.054688 24.402344 15.023438 C 26.433594 12.992188 29.132812 11.875 32 11.875 C 34.871094 11.875 37.570312 12.992188 39.601562 15.023438 C 41.632812 17.054688 42.75 19.757812 42.75 22.625 C 42.75 25.492188 41.632812 28.195312 39.601562 30.226562 C 37.570312 32.257812 34.871094 33.375 32 33.375 Z M 32 33.375 "/>
</g>
</svg>
