<svg width="32" height="32" viewBox="0 0 32 32" fill="none" xmlns="http://www.w3.org/2000/svg">
<path d="M19.5244 16L31.4888 4.03434C31.8179 3.70496 31.9995 3.26551 32 2.79693C32 2.32809 31.8184 1.88812 31.4888 1.55926L30.4403 0.510993C30.1107 0.180825 29.6713 0 29.2022 0C28.7339 0 28.2945 0.180825 27.9649 0.510993L16.0005 12.4759L4.03564 0.510993C3.70654 0.180825 3.26686 0 2.79805 0C2.32976 0 1.89008 0.180825 1.56098 0.510993L0.512 1.55926C-0.170667 2.24197 -0.170667 3.35241 0.512 4.03434L12.4766 16L0.512 27.9651C0.182634 28.295 0.00130081 28.7345 0.00130081 29.2031C0.00130081 29.6717 0.182634 30.1111 0.512 30.4407L1.56072 31.489C1.88982 31.8189 2.32976 32 2.79779 32C3.2666 32 3.70628 31.8189 4.03538 31.489L16.0003 19.5239L27.9646 31.489C28.2942 31.8189 28.7337 32 29.202 32H29.2025C29.671 32 30.1104 31.8189 30.4401 31.489L31.4885 30.4407C31.8176 30.1114 31.9992 29.6717 31.9992 29.2031C31.9992 28.7345 31.8176 28.295 31.4885 27.9654L19.5244 16Z" fill="black"/>
</svg>
