<svg xmlns="http://www.w3.org/2000/svg" width="32" height="32"><path d="m28.426 26.703-8.117-8.117a9.27 9.27 0 0 0 1.941-5.711 9.32 9.32 0 0 0-2.746-6.629A9.32 9.32 0 0 0 12.875 3.5c-2.504 0-4.86.977-6.629 2.746A9.3 9.3 0 0 0 3.5 12.875c0 2.504.977 4.86 2.746 6.629a9.3 9.3 0 0 0 6.629 2.746c2.094 0 4.082-.68 5.71-1.937l8.114 8.113a.26.26 0 0 0 .363 0l1.364-1.36a.26.26 0 0 0 0-.363m-10.602-8.879a6.95 6.95 0 0 1-4.949 2.051 6.95 6.95 0 0 1-4.95-2.05 6.95 6.95 0 0 1-2.05-4.95c0-1.867.727-3.629 2.05-4.95a6.95 6.95 0 0 1 4.95-2.05c1.867 0 3.629.727 4.95 2.05a6.95 6.95 0 0 1 2.05 4.95 6.95 6.95 0 0 1-2.05 4.95" style="stroke:none;fill-rule:nonzero;fill:#8c8c8c;fill-opacity:1"/></svg>