<?xml version="1.0" encoding="UTF-8"?>
<svg xmlns="http://www.w3.org/2000/svg" xmlns:xlink="http://www.w3.org/1999/xlink" width="64px" height="64px" viewBox="0 0 64 64" version="1.1">
<g id="surface1">
<path style=" stroke:none;fill-rule:nonzero;fill:rgb(54.901963%,54.901963%,54.901963%);fill-opacity:1;" d="M 57.679688 43.867188 L 20.460938 43.867188 L 22.332031 40.0625 L 53.378906 40.007812 C 54.429688 40.007812 55.332031 39.257812 55.519531 38.21875 L 59.816406 14.148438 C 59.933594 13.519531 59.761719 12.867188 59.347656 12.375 C 58.9375 11.882812 58.328125 11.597656 57.6875 11.59375 L 18.1875 11.460938 L 17.847656 9.875 C 17.636719 8.863281 16.722656 8.125 15.6875 8.125 L 6.03125 8.125 C 4.8125 8.125 3.824219 9.113281 3.824219 10.332031 C 3.824219 11.550781 4.8125 12.539062 6.03125 12.539062 L 13.898438 12.539062 L 15.375 19.550781 L 19.003906 37.132812 L 14.332031 44.761719 C 13.835938 45.429688 13.761719 46.324219 14.144531 47.0625 C 14.515625 47.808594 15.277344 48.277344 16.113281 48.273438 L 20.035156 48.273438 C 19.199219 49.386719 18.75 50.738281 18.75 52.132812 C 18.75 55.667969 21.625 58.542969 25.160156 58.542969 C 28.699219 58.542969 31.574219 55.667969 31.574219 52.132812 C 31.574219 50.738281 31.113281 49.382812 30.285156 48.273438 L 40.355469 48.273438 C 39.519531 49.386719 39.066406 50.738281 39.066406 52.132812 C 39.066406 55.667969 41.941406 58.542969 45.480469 58.542969 C 49.019531 58.542969 51.894531 55.667969 51.894531 52.132812 C 51.894531 50.738281 51.429688 49.382812 50.605469 48.273438 L 57.6875 48.273438 C 58.898438 48.273438 59.894531 47.289062 59.894531 46.070312 C 59.886719 44.851562 58.898438 43.871094 57.679688 43.867188 M 19.105469 15.8125 L 55.09375 15.929688 L 51.566406 35.667969 L 23.300781 35.71875 Z M 25.160156 54.105469 C 24.074219 54.105469 23.1875 53.21875 23.1875 52.132812 C 23.1875 51.042969 24.074219 50.15625 25.160156 50.15625 C 26.25 50.15625 27.136719 51.042969 27.136719 52.132812 C 27.136719 53.222656 26.253906 54.105469 25.160156 54.105469 M 45.480469 54.105469 C 44.394531 54.105469 43.503906 53.21875 43.503906 52.132812 C 43.503906 51.042969 44.394531 50.15625 45.480469 50.15625 C 46.566406 50.15625 47.457031 51.042969 47.457031 52.132812 C 47.457031 53.222656 46.570312 54.105469 45.480469 54.105469 "/>
</g>
</svg>
