<svg width="32" height="32" viewBox="0 0 32 32" fill="none" xmlns="http://www.w3.org/2000/svg">
<path d="M31.9165 12.0924C31.707 11.4163 31.1323 10.936 30.4524 10.8721L21.2163 9.99697L17.5641 1.07689C17.2948 0.423165 16.6815 0 16.0001 0C15.3187 0 14.7054 0.423164 14.4361 1.07842L10.7839 9.99697L1.54642 10.8721C0.867692 10.9376 0.294437 11.4163 0.0837382 12.0924C-0.12696 12.7686 0.0676245 13.5102 0.581064 13.9777L7.56243 20.3667L5.50379 29.8294C5.35315 30.5252 5.61194 31.2444 6.16518 31.6617C6.46255 31.8859 6.81046 32 7.1613 32C7.46379 32 7.76385 31.9149 8.03314 31.7468L16.0001 26.7781L23.9642 31.7468C24.547 32.1126 25.2816 32.0792 25.8336 31.6617C26.3871 31.2431 26.6456 30.5236 26.495 29.8294L24.4364 20.3667L31.4177 13.9789C31.9312 13.5102 32.1272 12.7698 31.9165 12.0924V12.0924Z" fill="#FFC107"/>
</svg>
