<?xml version="1.0" encoding="UTF-8"?>
<svg xmlns="http://www.w3.org/2000/svg" xmlns:xlink="http://www.w3.org/1999/xlink" width="64px" height="64px" viewBox="0 0 64 64" version="1.1">
<g id="surface1">
<path style=" stroke:none;fill-rule:nonzero;fill:rgb(0%,0%,0%);fill-opacity:1;" d="M 19.144531 0.375 C 17.617188 0.949219 16.367188 2.101562 15.589844 3.703125 L 14.890625 5.128906 L 14.8125 13.3125 L 14.738281 21.519531 L 14.039062 21.519531 C 12.914062 21.519531 12.761719 21.894531 12.761719 24.675781 L 12.761719 27.25 L 9.960938 29.628906 L 7.183594 32.03125 L 0 32.03125 L 0 34.285156 L 3.953125 34.285156 L 7.882812 34.257812 L 11.3125 31.304688 C 14.6875 28.378906 16.265625 27.425781 16.816406 27.976562 C 17.015625 28.175781 16.441406 28.953125 14.914062 30.554688 C 12.8125 32.808594 12.4375 33.53125 13.085938 33.957031 C 13.238281 34.058594 16.089844 34.207031 19.394531 34.285156 C 24.847656 34.410156 25.398438 34.457031 25.476562 34.835938 C 25.550781 35.257812 25.226562 35.285156 21.269531 35.285156 C 18.792969 35.285156 16.792969 35.382812 16.492188 35.535156 C 15.964844 35.835938 15.839844 36.886719 16.339844 37.210938 C 16.492188 37.3125 19.34375 37.460938 22.648438 37.535156 C 27.753906 37.636719 28.652344 37.710938 28.652344 38.039062 C 28.652344 38.363281 27.800781 38.414062 22.671875 38.488281 C 18.769531 38.511719 16.566406 38.636719 16.339844 38.8125 C 15.867188 39.238281 15.941406 40.238281 16.492188 40.539062 C 16.792969 40.691406 18.945312 40.789062 21.769531 40.789062 C 26.199219 40.789062 26.550781 40.816406 26.476562 41.214844 C 26.402344 41.617188 25.925781 41.664062 21.472656 41.742188 C 16.140625 41.816406 15.789062 41.890625 16.117188 43.167969 C 16.265625 43.792969 16.289062 43.792969 19.34375 43.816406 C 21.019531 43.816406 22.273438 43.894531 22.121094 43.941406 C 21.972656 44.019531 20.320312 44.269531 18.46875 44.519531 L 15.089844 44.945312 L 11.359375 43.894531 C 7.707031 42.816406 7.558594 42.816406 3.828125 42.792969 L 0 42.792969 L 0 45.042969 L 3.855469 45.042969 C 5.957031 45.042969 8.007812 45.144531 8.40625 45.269531 C 8.808594 45.417969 9.960938 45.746094 10.960938 46.046875 L 12.761719 46.570312 L 12.761719 51.875 C 12.761719 55.679688 12.835938 57.28125 13.0625 57.507812 C 13.289062 57.730469 15.289062 57.804688 20.570312 57.804688 L 27.777344 57.804688 L 27.777344 59.03125 C 27.777344 60.433594 28.503906 61.535156 29.703125 62.011719 C 30.90625 62.484375 50.398438 64.136719 52.675781 63.960938 C 54.578125 63.835938 63.710938 62.234375 63.9375 62.011719 C 64.164062 61.785156 63.738281 60.058594 63.460938 60.058594 C 63.285156 60.058594 61.007812 60.460938 58.40625 60.933594 C 52.425781 62.035156 51.375 62.035156 39.664062 60.933594 C 31.78125 60.207031 30.378906 60.035156 30.105469 59.65625 C 29.679688 59.082031 29.703125 58.683594 30.179688 58.207031 C 30.503906 57.855469 31.582031 57.804688 38.1875 57.804688 C 44.492188 57.804688 45.945312 57.730469 46.546875 57.429688 C 47.472656 56.957031 47.796875 56.355469 47.796875 55.105469 C 47.796875 54.328125 47.519531 53.777344 46.296875 52.101562 C 44.820312 50.074219 44.519531 49.171875 45.09375 48.597656 C 45.746094 47.945312 46.445312 48.347656 49.046875 50.925781 L 51.726562 53.550781 L 63.8125 53.550781 L 63.8125 51.300781 L 52.425781 51.300781 L 50.175781 49.046875 L 47.921875 46.796875 L 47.796875 34.207031 L 47.671875 21.644531 L 46.746094 21.570312 L 45.792969 21.496094 L 45.792969 18.269531 L 46.871094 18.269531 C 50.023438 18.269531 52.074219 15.089844 50.550781 12.5625 C 49.972656 11.636719 48.671875 10.761719 47.847656 10.761719 C 47.296875 10.761719 47.296875 10.734375 47.671875 10.007812 C 49.074219 7.28125 45.96875 4.179688 43.242188 5.605469 C 42.589844 5.957031 42.566406 5.929688 42.417969 5.230469 C 42.039062 3.578125 40.238281 2.203125 38.414062 2.203125 C 36.4375 2.203125 34.933594 3.304688 34.257812 5.230469 C 34.007812 5.957031 33.984375 5.980469 33.382812 5.582031 C 32.457031 4.980469 30.679688 5.253906 29.753906 6.15625 C 28.703125 7.15625 28.402344 8.359375 28.851562 9.683594 C 29.152344 10.558594 29.152344 10.761719 28.902344 10.761719 C 28.703125 10.761719 28.402344 10.835938 28.175781 10.910156 C 27.828125 11.035156 27.777344 10.761719 27.777344 8.683594 C 27.777344 4.378906 26.953125 2.453125 24.472656 0.925781 C 23.046875 0.0234375 20.71875 -0.199219 19.144531 0.375 M 23.546875 2.828125 C 24 3.128906 24.648438 3.828125 24.949219 4.378906 C 25.476562 5.304688 25.523438 5.679688 25.523438 9.808594 C 25.523438 14.0625 25.5 14.238281 25 14.390625 C 24.425781 14.589844 23.523438 15.914062 23.523438 16.566406 C 23.523438 16.964844 23.246094 17.015625 21.394531 17.015625 L 19.269531 17.015625 L 19.269531 19.269531 L 21.394531 19.269531 C 22.921875 19.269531 23.523438 19.195312 23.523438 18.945312 C 23.523438 18.792969 23.796875 19.242188 24.148438 19.96875 C 24.5 20.71875 24.773438 21.371094 24.773438 21.421875 C 24.773438 21.472656 23.023438 21.519531 20.894531 21.519531 L 17.015625 21.519531 L 17.015625 13.5625 C 17.015625 6.382812 17.066406 5.53125 17.492188 4.605469 C 17.917969 3.652344 18.84375 2.777344 19.769531 2.425781 C 20.746094 2.050781 22.722656 2.253906 23.546875 2.828125 M 39.3125 4.503906 C 40.089844 4.929688 40.539062 6.105469 40.539062 7.734375 C 40.539062 8.910156 40.640625 9.285156 40.988281 9.460938 C 41.589844 9.785156 41.992188 9.585938 43.34375 8.359375 C 44.316406 7.433594 44.617188 7.308594 45.09375 7.480469 C 46.144531 7.859375 45.996094 8.882812 44.695312 10.261719 C 43.417969 11.613281 43.441406 11.585938 43.792969 12.285156 C 44.019531 12.6875 44.34375 12.761719 45.945312 12.761719 C 47.621094 12.761719 47.898438 12.835938 48.449219 13.414062 C 48.949219 13.886719 49.046875 14.1875 48.921875 14.714844 C 48.671875 15.765625 48.121094 16.015625 46.121094 16.015625 C 44.34375 16.015625 44.242188 16.039062 43.867188 16.742188 L 43.441406 17.441406 L 42.191406 16.792969 C 39.988281 15.640625 37.109375 15.964844 35.382812 17.566406 C 34.835938 18.042969 34.835938 18.042969 34.308594 17.167969 C 33.132812 15.265625 31.082031 14.015625 29.128906 14.015625 C 28.300781 14.015625 28.027344 13.914062 28.027344 13.636719 C 28.027344 13.085938 29.078125 12.761719 30.878906 12.761719 C 33.359375 12.761719 33.632812 12.085938 31.90625 10.234375 C 30.65625 8.910156 30.503906 8.234375 31.304688 7.65625 C 31.980469 7.183594 32.40625 7.355469 33.832031 8.683594 C 34.808594 9.585938 35.109375 9.734375 35.507812 9.535156 C 36.136719 9.183594 36.285156 8.734375 36.285156 7.03125 C 36.285156 5.554688 36.535156 5.03125 37.410156 4.554688 C 38.035156 4.203125 38.6875 4.179688 39.3125 4.503906 M 30.429688 16.492188 C 31.628906 17.042969 32.429688 17.96875 32.808594 19.292969 C 33.359375 21.070312 32.53125 21.695312 29.929688 21.394531 C 27.925781 21.195312 26.851562 20.519531 26.101562 19.019531 C 24.972656 16.839844 25.476562 16.015625 27.851562 16.015625 C 28.828125 16.015625 29.777344 16.191406 30.429688 16.492188 M 41.742188 18.945312 C 42.417969 19.445312 43.542969 20.921875 43.542969 21.296875 C 43.542969 21.421875 41.691406 21.519531 39.414062 21.519531 C 37.136719 21.519531 35.285156 21.421875 35.285156 21.296875 C 35.285156 20.84375 36.460938 19.367188 37.285156 18.820312 C 38.011719 18.316406 38.386719 18.242188 39.613281 18.316406 C 40.539062 18.394531 41.289062 18.617188 41.742188 18.945312 M 17.015625 24.648438 L 17.015625 25.773438 L 15.015625 25.773438 L 15.015625 23.523438 L 17.015625 23.523438 Z M 21.269531 27.777344 L 21.269531 32.03125 L 19.269531 32.03125 L 19.269531 23.523438 L 21.269531 23.523438 Z M 45.792969 34.757812 L 45.792969 45.996094 L 45.042969 46.171875 C 44.644531 46.246094 43.96875 46.71875 43.566406 47.195312 C 42.039062 48.898438 42.214844 50.199219 44.292969 52.953125 C 45.117188 54.027344 45.792969 55.078125 45.792969 55.230469 C 45.792969 55.480469 43.390625 55.554688 34.660156 55.554688 L 23.523438 55.554688 L 23.523438 50.875 C 23.523438 46.570312 23.574219 46.121094 24.097656 45.019531 C 24.648438 43.816406 24.648438 43.816406 25.898438 43.792969 C 27.652344 43.769531 28.777344 42.765625 28.777344 41.191406 C 28.777344 40.789062 28.929688 40.539062 29.128906 40.539062 C 29.855469 40.539062 30.78125 39.0625 30.78125 37.9375 C 30.78125 36.6875 29.878906 35.632812 28.601562 35.382812 C 27.976562 35.257812 27.800781 35.085938 27.675781 34.433594 C 27.425781 33.15625 26.277344 32.230469 24.773438 32.082031 L 23.523438 31.957031 L 23.523438 23.523438 L 45.792969 23.523438 Z M 21.269531 50.222656 L 21.269531 54.152344 L 19.269531 52.199219 L 19.269531 46.570312 L 19.96875 46.46875 C 20.34375 46.421875 20.796875 46.34375 20.96875 46.320312 C 21.195312 46.296875 21.269531 47.222656 21.269531 50.222656 M 17.015625 49.5 L 17.015625 52.199219 L 15.015625 54.152344 L 15.015625 47.070312 L 15.839844 46.972656 C 16.265625 46.921875 16.714844 46.84375 16.839844 46.84375 C 16.941406 46.820312 17.015625 48.023438 17.015625 49.5 M 18.894531 54.804688 L 19.617188 55.554688 L 16.667969 55.554688 L 17.390625 54.804688 C 17.792969 54.378906 18.117188 54.050781 18.144531 54.050781 C 18.167969 54.050781 18.492188 54.378906 18.894531 54.804688 "/>
<path style=" stroke:none;fill-rule:nonzero;fill:rgb(0%,0%,0%);fill-opacity:1;" d="M 19.269531 9.632812 L 19.269531 10.785156 L 21.347656 10.710938 L 23.398438 10.636719 L 23.472656 9.558594 L 23.546875 8.507812 L 19.269531 8.507812 Z M 19.269531 13.886719 L 19.269531 15.015625 L 23.546875 15.015625 L 23.472656 13.9375 L 23.398438 12.886719 L 21.347656 12.8125 L 19.269531 12.738281 Z M 36.011719 10.308594 C 35.808594 10.785156 35.308594 11.285156 34.859375 11.511719 C 34.132812 11.835938 34.03125 11.988281 34.03125 12.960938 C 34.03125 13.988281 34.058594 14.015625 34.734375 13.863281 C 36.761719 13.363281 38.289062 11.710938 38.289062 9.984375 C 38.289062 9.609375 38.113281 9.507812 37.335938 9.507812 C 36.484375 9.507812 36.335938 9.609375 36.011719 10.308594 M 39.4375 11.4375 C 39.839844 13.085938 40.589844 13.988281 42.117188 14.640625 C 43.441406 15.191406 43.542969 15.140625 43.542969 13.9375 C 43.542969 12.988281 43.46875 12.835938 42.765625 12.585938 C 42.292969 12.386719 41.914062 12.011719 41.714844 11.535156 C 41.464844 10.835938 41.316406 10.761719 40.363281 10.761719 C 39.3125 10.761719 39.289062 10.785156 39.4375 11.4375 "/>
</g>
</svg>
