<?xml version="1.0" encoding="UTF-8"?>
<svg xmlns="http://www.w3.org/2000/svg" xmlns:xlink="http://www.w3.org/1999/xlink" width="64px" height="64px" viewBox="0 0 64 64" version="1.1">
<g id="surface1">
<path style=" stroke:none;fill-rule:nonzero;fill:rgb(11.372549%,52.941179%,89.411765%);fill-opacity:1;" d="M 29.125 14.183594 C 29.640625 14.1875 30.15625 14.183594 30.667969 14.183594 C 35.320312 14.175781 35.320312 14.175781 37 15.5 C 38.03125 16.996094 37.773438 19.042969 37.75 20.773438 C 37.742188 21.320312 37.738281 21.867188 37.734375 22.414062 C 37.726562 23.269531 37.71875 24.128906 37.707031 24.984375 C 37.695312 25.816406 37.691406 26.644531 37.6875 27.476562 C 37.679688 27.730469 37.675781 27.988281 37.671875 28.25 C 37.667969 29.613281 37.738281 30.566406 38.5 31.75 C 39.300781 31.839844 39.660156 31.8125 40.335938 31.351562 C 41.109375 30.648438 41.703125 29.90625 42.3125 29.0625 C 42.433594 28.898438 42.550781 28.734375 42.675781 28.5625 C 44.734375 25.664062 46.273438 22.511719 47.765625 19.296875 C 49.035156 16.5625 49.035156 16.5625 49.75 16 C 50.335938 15.90625 50.335938 15.90625 51.035156 15.902344 C 51.429688 15.898438 51.429688 15.898438 51.828125 15.894531 C 52.113281 15.898438 52.394531 15.898438 52.6875 15.902344 C 52.976562 15.898438 53.269531 15.898438 53.566406 15.898438 C 54.183594 15.898438 54.796875 15.898438 55.414062 15.902344 C 56.355469 15.90625 57.296875 15.902344 58.238281 15.898438 C 58.835938 15.898438 59.433594 15.898438 60.03125 15.902344 C 60.3125 15.898438 60.59375 15.898438 60.886719 15.894531 C 61.28125 15.898438 61.28125 15.898438 61.683594 15.902344 C 61.914062 15.902344 62.144531 15.902344 62.382812 15.90625 C 63.125 16.019531 63.46875 16.21875 64 16.75 C 64.183594 18.25 63.882812 19.292969 63.171875 20.625 C 63.082031 20.796875 62.992188 20.96875 62.902344 21.144531 C 61.261719 24.210938 59.128906 26.929688 56.984375 29.652344 C 54.800781 32.199219 54.800781 32.199219 53.75 35.25 C 54.273438 36.554688 55.027344 37.367188 56.027344 38.3125 C 56.332031 38.613281 56.636719 38.910156 56.945312 39.210938 C 57.421875 39.675781 57.902344 40.136719 58.378906 40.597656 C 63.871094 45.886719 63.871094 45.886719 64.078125 48.46875 C 64.066406 49.210938 64.03125 49.453125 63.609375 50.09375 C 62.148438 51.070312 60.5625 51.078125 58.863281 51.085938 C 58.523438 51.085938 58.523438 51.085938 58.179688 51.089844 C 57.703125 51.089844 57.230469 51.09375 56.753906 51.09375 C 56.035156 51.09375 55.316406 51.101562 54.59375 51.113281 C 54.132812 51.113281 53.667969 51.113281 53.207031 51.117188 C 52.992188 51.117188 52.78125 51.121094 52.5625 51.125 C 50.011719 51.105469 48.105469 49.921875 46.25 48.25 C 45.808594 47.792969 45.398438 47.316406 44.988281 46.832031 C 44.367188 46.09375 43.726562 45.371094 43.078125 44.65625 C 42.960938 44.523438 42.847656 44.394531 42.726562 44.257812 C 41.921875 43.371094 41.308594 42.847656 40.125 42.640625 C 39.449219 42.699219 39.449219 42.699219 38.953125 43.296875 C 38.027344 44.730469 37.863281 46.113281 37.71875 47.78125 C 37.605469 48.859375 37.460938 49.664062 36.75 50.5 C 35.503906 51.125 34.222656 51.078125 32.859375 51.0625 C 32.636719 51.0625 32.414062 51.058594 32.1875 51.058594 C 26.664062 50.972656 21.390625 49.210938 17.25 45.5 C 17.042969 45.324219 16.835938 45.152344 16.621094 44.972656 C 15.054688 43.621094 13.746094 42.144531 12.5 40.5 C 12.378906 40.34375 12.261719 40.1875 12.136719 40.027344 C 7.699219 34.183594 4.136719 27.601562 1.03125 20.96875 C 0.925781 20.75 0.820312 20.527344 0.710938 20.300781 C 0.101562 18.960938 -0.113281 17.972656 0 16.5 C 0.734375 16.082031 1.261719 15.9375 2.101562 15.929688 C 2.320312 15.929688 2.535156 15.925781 2.757812 15.925781 C 2.988281 15.925781 3.222656 15.925781 3.460938 15.925781 C 3.699219 15.921875 3.941406 15.921875 4.1875 15.921875 C 4.691406 15.921875 5.199219 15.921875 5.707031 15.921875 C 6.480469 15.921875 7.253906 15.914062 8.027344 15.910156 C 8.519531 15.910156 9.015625 15.910156 9.507812 15.910156 C 9.851562 15.90625 9.851562 15.90625 10.207031 15.902344 C 11.417969 15.910156 12.285156 15.933594 13.25 16.75 C 13.546875 17.164062 13.546875 17.164062 13.75 17.628906 C 13.832031 17.804688 13.910156 17.980469 13.996094 18.164062 C 14.078125 18.355469 14.164062 18.550781 14.25 18.75 C 14.445312 19.179688 14.644531 19.609375 14.84375 20.035156 C 14.949219 20.265625 15.054688 20.492188 15.164062 20.730469 C 17.917969 26.785156 17.917969 26.785156 22.25 31.75 C 22.890625 31.96875 22.890625 31.96875 23.5 32 C 24.273438 31.542969 24.410156 30.84375 24.640625 30.011719 C 24.835938 29.101562 24.882812 28.191406 24.921875 27.265625 C 24.929688 27.058594 24.941406 26.851562 24.949219 26.640625 C 25.199219 22.425781 25.199219 22.425781 24 18.5 C 23.082031 17.703125 22.160156 17.332031 21 17 C 21.5625 15.878906 22.140625 15.335938 23.25 14.75 C 25.167969 14.164062 27.140625 14.171875 29.125 14.183594 Z M 29.125 14.183594 "/>
</g>
</svg>
