<?xml version="1.0" encoding="UTF-8"?>
<svg xmlns="http://www.w3.org/2000/svg" xmlns:xlink="http://www.w3.org/1999/xlink" width="64px" height="64px" viewBox="0 0 64 64" version="1.1">
<g id="surface1">
<path style=" stroke:none;fill-rule:evenodd;fill:rgb(9.803922%,46.27451%,82.352942%);fill-opacity:1;" d="M 5.875 -0.125 C 23.207031 -0.125 40.542969 -0.125 57.875 -0.125 C 60.792969 0.957031 62.792969 2.957031 63.875 5.875 C 63.875 23.207031 63.875 40.542969 63.875 57.875 C 62.792969 60.792969 60.792969 62.792969 57.875 63.875 C 53.207031 63.875 48.542969 63.875 43.875 63.875 C 43.875 56.542969 43.875 49.207031 43.875 41.875 C 45.875 41.917969 47.875 41.875 49.875 41.75 C 51.207031 38.5 52.542969 35.25 53.875 32 C 50.542969 31.875 47.210938 31.832031 43.875 31.875 C 43.832031 28.875 43.875 25.875 44 22.875 C 44.304688 22.488281 44.679688 22.195312 45.125 22 C 47.375 21.875 49.625 21.832031 51.875 21.875 C 51.875 18.542969 51.875 15.207031 51.875 11.875 C 48.457031 11.832031 45.039062 11.875 41.625 12 C 36.992188 13.21875 33.867188 16.09375 32.25 20.625 C 31.890625 24.359375 31.765625 28.109375 31.875 31.875 C 29.207031 31.875 26.542969 31.875 23.875 31.875 C 23.875 35.207031 23.875 38.542969 23.875 41.875 C 26.542969 41.875 29.207031 41.875 31.875 41.875 C 31.875 49.207031 31.875 56.542969 31.875 63.875 C 23.207031 63.875 14.542969 63.875 5.875 63.875 C 2.957031 62.792969 0.957031 60.792969 -0.125 57.875 C -0.125 40.542969 -0.125 23.207031 -0.125 5.875 C 0.957031 2.957031 2.957031 0.957031 5.875 -0.125 Z M 5.875 -0.125 "/>
<path style=" stroke:none;fill-rule:evenodd;fill:rgb(97.647059%,97.647059%,97.647059%);fill-opacity:1;" d="M 43.875 63.875 C 39.875 63.875 35.875 63.875 31.875 63.875 C 31.875 56.542969 31.875 49.207031 31.875 41.875 C 29.207031 41.875 26.542969 41.875 23.875 41.875 C 23.875 38.542969 23.875 35.207031 23.875 31.875 C 26.542969 31.875 29.207031 31.875 31.875 31.875 C 31.765625 28.109375 31.890625 24.359375 32.25 20.625 C 33.867188 16.09375 36.992188 13.21875 41.625 12 C 45.039062 11.875 48.457031 11.832031 51.875 11.875 C 51.875 15.207031 51.875 18.542969 51.875 21.875 C 49.625 21.832031 47.375 21.875 45.125 22 C 44.679688 22.195312 44.304688 22.488281 44 22.875 C 43.875 25.875 43.832031 28.875 43.875 31.875 C 47.210938 31.832031 50.542969 31.875 53.875 32 C 52.542969 35.25 51.207031 38.5 49.875 41.75 C 47.875 41.875 45.875 41.917969 43.875 41.875 C 43.875 49.207031 43.875 56.542969 43.875 63.875 Z M 43.875 63.875 "/>
</g>
</svg>
